<svg width="0" height="0" class="hidden">
  <symbol fill="none" xmlns="http://www.w3.org/2000/svg" viewBox="0 0 15 17" id="account">
    <path fill-rule="evenodd" clip-rule="evenodd" d="M7.22854 0.315353H7.23694C8.37293 0.315353 9.46471 0.759581 10.2714 1.55389C11.0785 2.3486 11.5341 3.42892 11.5341 4.55784V6.65881C11.5341 7.75565 11.1039 8.80802 10.3367 9.59687C9.56984 10.3854 8.52574 10.8499 7.42294 10.8971L7.41553 10.8974L7.24533 10.9013H7.23694C6.10094 10.9013 5.00917 10.457 4.20244 9.66272C3.39534 8.86801 2.93974 7.78772 2.93974 6.65881V4.55784C2.93981 3.46096 3.37002 2.4086 4.13721 1.61974C4.90403 0.831245 5.94813 0.366702 7.05094 0.319532L7.05835 0.319216L7.22854 0.315353ZM7.24487 1.79705L7.10724 1.80018C6.38151 1.83298 5.69861 2.13946 5.19942 2.65278C4.69897 3.16735 4.4215 3.85002 4.42143 4.55784C4.42143 4.5578 4.42143 4.55784 4.42143 4.55784V6.65881C4.42143 7.38727 4.71523 8.08824 5.24202 8.6069C5.7673 9.12414 6.48151 9.41752 7.22904 9.41956L7.36664 9.41643C8.09237 9.38364 8.77526 9.07716 9.27446 8.56387C9.77491 8.04926 10.0524 7.36663 10.0524 6.65881C10.0524 6.65878 10.0524 6.65881 10.0524 6.65881V4.55784C10.0524 3.82937 9.75864 3.12837 9.23185 2.60971C8.70658 2.09247 7.99237 1.79913 7.24487 1.79705ZM3.17424 14.3446C2.14852 14.9215 1.71863 15.6027 1.71863 16.1884H0.236938C0.236938 14.8296 1.20824 13.7504 2.44785 13.0532C3.71068 12.3428 5.40537 11.9268 7.23694 11.9268C9.0685 11.9268 10.7632 12.3428 12.026 13.0532C13.2656 13.7504 14.2369 14.8296 14.2369 16.1884H12.7552C12.7552 15.6027 12.3254 14.9215 11.2996 14.3446C10.2971 13.7806 8.86222 13.4085 7.23694 13.4085C5.61165 13.4085 4.17679 13.7806 3.17424 14.3446Z" fill="currentColor"></path>
  </symbol>
  <symbol fill="none" xmlns="http://www.w3.org/2000/svg" viewBox="0 0 10 10" id="close">
    <path fill-rule="evenodd" clip-rule="evenodd" d="M9.19998 0.806647C8.93998 0.546647 8.51998 0.546647 8.25998 0.806647L4.99998 4.05998L1.73998 0.79998C1.47998 0.53998 1.05998 0.53998 0.79998 0.79998C0.53998 1.05998 0.53998 1.47998 0.79998 1.73998L4.05998 4.99998L0.79998 8.25998C0.53998 8.51998 0.53998 8.93998 0.79998 9.19998C1.05998 9.45998 1.47998 9.45998 1.73998 9.19998L4.99998 5.93998L8.25998 9.19998C8.51998 9.45998 8.93998 9.45998 9.19998 9.19998C9.45998 8.93998 9.45998 8.51998 9.19998 8.25998L5.93998 4.99998L9.19998 1.73998C9.45331 1.48665 9.45331 1.05998 9.19998 0.806647Z" fill="#8C94A8"></path>
  </symbol>
  <symbol fill="none" xmlns="http://www.w3.org/2000/svg" viewBox="0 0 48 48" id="contribution">
    <g clip-path="url(#clip0_83_10116)">
      <path d="M25.8326 26.7648H20.3136V29.5296H29.3011V31.3728H20.3136V35.0592H18.4929V31.3728H15.7056V29.5296H18.4929V26.7648H15.7056V24.9284H18.4929V13.8624H26.1113C28.2791 13.8624 29.9721 14.4028 31.1902 15.4833C32.429 16.5432 33.0484 18.1018 33.0484 20.1592C33.0484 22.2165 32.4393 23.8062 31.2213 24.9284C30.0031 26.0298 28.2069 26.7648 25.8326 26.7648ZM20.3136 15.7056V24.9257L26.1113 24.9284C27.6184 24.9284 28.7863 24.7066 29.5296 24C30.2728 23.2934 31.3728 22.1568 31.3728 20.1592C31.3728 18.4704 30.7543 17.7738 29.9904 17.088C29.2471 16.4023 27.5978 15.7083 26.1113 15.7083L20.3136 15.7056Z" fill="#007BFB" stroke="#007BFB"></path>
      <path fill-rule="evenodd" clip-rule="evenodd" d="M15.6222 44.4704C19.8523 46.2016 24.5001 46.5743 28.9269 45.5628C29.9252 45.3346 29.5474 45.1873 29.3602 45.1382C29.3102 45.1251 29.2582 45.1418 29.2217 45.1783C29.1071 45.2929 29.2189 45.4852 29.3752 45.4423L30.5123 45.1304C30.6364 45.0964 30.7411 45.0131 30.802 44.8998L30.8704 44.7726C31.0599 44.4205 30.9631 43.9829 30.643 43.7435L30.5548 43.6775C30.313 43.4967 29.9992 43.4452 29.7094 43.5299C25.2919 44.8214 20.5614 44.5781 16.293 42.8312C11.8762 41.0236 8.23518 37.7208 6.00682 33.5005C3.77847 29.2801 3.10452 24.4107 4.10281 19.7439C5.10111 15.0769 7.70811 10.9094 11.468 7.96996C15.2278 5.03055 19.9014 3.5063 24.6713 3.66374C29.4412 3.82118 34.004 5.65028 37.5618 8.83123C41.1197 12.0122 43.4462 16.3425 44.1346 21.0652C44.7803 25.4951 43.9461 30.0057 41.7753 33.9023C41.5373 34.3296 41.6653 34.8741 42.0818 35.1305C42.4982 35.3868 43.0453 35.2579 43.2848 34.8315C43.4417 34.5521 43.5923 34.2698 43.7365 33.9847C45.7865 29.9329 46.5464 25.3326 45.8872 20.8097C45.1388 15.676 42.6099 10.9687 38.7423 7.51092C34.8747 4.05309 29.9148 2.06478 24.7297 1.89364C19.5446 1.7225 14.4643 3.37941 10.3772 6.57468C6.29004 9.76994 3.45612 14.3002 2.37093 19.3734C1.28574 24.4465 2.01835 29.7397 4.44066 34.3273C6.86297 38.9151 10.8208 42.5053 15.6222 44.4704ZM36.9024 42.432C37.9204 42.432 38.7456 41.6068 38.7456 40.5888C38.7456 39.5708 37.9204 38.7456 36.9024 38.7456C35.8845 38.7456 35.0592 39.5708 35.0592 40.5888C35.0592 41.6068 35.8845 42.432 36.9024 42.432Z" fill="#007BFB" stroke="#007BFB" stroke-width="3"></path>
    </g>
    <defs>
      <clipPath id="clip0_83_10116">
        <rect width="48" height="48" fill="white"></rect>
      </clipPath>
    </defs>
  </symbol>
  <symbol fill="none" xmlns="http://www.w3.org/2000/svg" viewBox="0 0 47 48" id="percent">
    <path fill-rule="evenodd" clip-rule="evenodd" d="M0 10.4261C0 4.70188 4.62581 0 10.3794 0H37.8249C38.581 0 39.2741 0.421387 39.6222 1.09268C39.9702 1.76397 39.9151 2.57326 39.4793 3.19121L7.87972 48L4.57083 45.6666L33.92 4.04892H10.3794C6.89133 4.04892 4.04897 6.90855 4.04897 10.4261C4.04897 13.929 6.92327 16.8033 10.4261 16.8033C13.9289 16.8033 16.8033 13.929 16.8033 10.4261V7.62557H20.8523V10.4261C20.8523 16.1651 16.1651 20.8522 10.4261 20.8522C4.68717 20.8522 0 16.1651 0 10.4261ZM35.6311 29.2539C32.109 29.2539 29.2539 32.1091 29.2539 35.6311C29.2539 39.1531 32.109 42.0083 35.6311 42.0083C39.1531 42.0083 42.0082 39.1531 42.0082 35.6311C42.0082 32.1091 39.1531 29.2539 35.6311 29.2539ZM25.205 35.6311C25.205 29.8729 29.8729 25.205 35.6311 25.205C41.3893 25.205 46.0572 29.8729 46.0572 35.6311C46.0572 41.3893 41.3893 46.0572 35.6311 46.0572C29.8729 46.0572 25.205 41.3893 25.205 35.6311Z" fill="#007BFB"></path>
  </symbol>
  <symbol fill="none" xmlns="http://www.w3.org/2000/svg" viewBox="0 0 14 14" id="reject">
    <path fill-rule="evenodd" clip-rule="evenodd" d="M6.99992 0.333252C3.31992 0.333252 0.333252 3.31992 0.333252 6.99992C0.333252 10.6799 3.31992 13.6666 6.99992 13.6666C10.6799 13.6666 13.6666 10.6799 13.6666 6.99992C13.6666 3.31992 10.6799 0.333252 6.99992 0.333252ZM6.99992 7.66659C6.63325 7.66659 6.33325 7.36659 6.33325 6.99992V4.33325C6.33325 3.96658 6.63325 3.66658 6.99992 3.66658C7.36659 3.66658 7.66659 3.96658 7.66659 4.33325V6.99992C7.66659 7.36659 7.36659 7.66659 6.99992 7.66659ZM7.66659 10.3333H6.33325V8.99992H7.66659V10.3333Z" fill="#E92C2C"></path>
  </symbol>
  <symbol fill="none" xmlns="http://www.w3.org/2000/svg" viewBox="0 0 59 71" id="rub">
    <path d="M34.5662 43.1087H16.2733V52.2391H46.0628V58.3261H16.2733V70.5H10.2385V58.3261H1V52.2391H10.2385V43.1087H1V37.0443H10.2385V0.5H35.4899C42.6754 0.5 48.2869 2.28439 52.3242 5.85287C56.4303 9.35287 58.4833 14.5 58.4833 21.2943C58.4833 28.0882 56.4645 33.3382 52.4272 37.0443C48.3895 40.6812 42.436 43.1087 34.5662 43.1087ZM16.2733 6.58696V37.0351L35.4899 37.0443C40.4855 37.0443 44.3564 36.3117 46.82 33.9783C49.2836 31.6448 52.9293 27.8913 52.9293 21.2943C52.9293 15.7174 50.8794 13.4168 48.3473 11.1522C45.8838 8.88752 40.4171 6.59578 35.4899 6.59578L16.2733 6.58696Z" fill="#007BFB" stroke="#007BFB"></path>
  </symbol>
  <symbol fill="none" xmlns="http://www.w3.org/2000/svg" viewBox="0 0 61 48" id="training">
    <path fill-rule="evenodd" clip-rule="evenodd" d="M30.0211 0L58.5235 12.9517C58.757 13.0403 59.0022 13.176 59.2364 13.3809C59.8392 13.9083 60.0421 14.6069 60.0421 15.1581C60.0421 16.0824 59.5267 16.6673 59.3264 16.8676L59.0268 17.1672L57.573 17.8278V32.8251H52.9011V19.9508L47.4866 22.4112V40.0435L30.0211 48L12.5555 40.0435V26.5211H17.2275V37.038L30.0211 42.8662L42.8147 37.038V24.5342L30.0211 30.3477L1.51003 17.3921C1.01833 17.1997 0.639683 16.8576 0.400261 16.4986C0.0822055 16.0216 0 15.5309 0 15.1739C0 14.8168 0.0822055 14.3262 0.400261 13.8491C0.639673 13.49 1.01832 13.1479 1.51003 12.9556L30.0211 0ZM7.92156 15.1739L30.0211 25.2161L52.1206 15.1739L30.0211 5.13168L7.92156 15.1739Z" fill="#007BFB"></path>
  </symbol>
  <symbol fill="none" xmlns="http://www.w3.org/2000/svg" viewBox="0 0 20 20" id="valid">
    <path fill-rule="evenodd" clip-rule="evenodd" d="M10 0C4.48 0 0 4.48 0 10C0 15.52 4.48 20 10 20C15.52 20 20 15.52 20 10C20 4.48 15.52 0 10 0ZM7.29 14.29L3.7 10.7C3.31 10.31 3.31 9.68 3.7 9.29C4.09 8.9 4.72 8.9 5.11 9.29L8 12.17L14.88 5.29C15.27 4.9 15.9 4.9 16.29 5.29C16.68 5.68 16.68 6.31 16.29 6.7L8.7 14.29C8.32 14.68 7.68 14.68 7.29 14.29Z" fill="#00BA34"></path>
  </symbol>
  <symbol fill="none" xmlns="http://www.w3.org/2000/svg" viewBox="0 0 24 24" id="help">
    <path fill-rule="evenodd" clip-rule="evenodd" d="M12 2C6.48 2 2 6.48 2 12C2 17.52 6.48 22 12 22C17.52 22 22 17.52 22 12C22 6.48 17.52 2 12 2ZM12 20C7.59 20 4 16.41 4 12C4 7.59 7.59 4 12 4C16.41 4 20 7.59 20 12C20 16.41 16.41 20 12 20ZM11 16H13V18H11V16ZM12.61 6.04C10.55 5.74 8.73 7.01 8.18 8.83C8 9.41 8.44 10 9.05 10H9.25C9.66 10 9.99 9.71 10.13 9.33C10.45 8.44 11.4 7.83 12.43 8.05C13.38 8.25 14.08 9.18 14 10.15C13.9 11.49 12.38 11.78 11.55 13.03C11.55 13.04 11.54 13.04 11.54 13.05C11.53 13.07 11.52 13.08 11.51 13.1C11.42 13.25 11.33 13.42 11.26 13.6C11.25 13.63 11.23 13.65 11.22 13.68C11.21 13.7 11.21 13.72 11.2 13.75C11.08 14.09 11 14.5 11 15H13C13 14.58 13.11 14.23 13.28 13.93C13.3 13.9 13.31 13.87 13.33 13.84C13.41 13.7 13.51 13.57 13.61 13.45C13.62 13.44 13.63 13.42 13.64 13.41C13.74 13.29 13.85 13.18 13.97 13.07C14.93 12.16 16.23 11.42 15.96 9.51C15.72 7.77 14.35 6.3 12.61 6.04Z" fill="#969696"/>
  </symbol>
</svg>