<svg width="15" height="17" viewBox="0 0 15 17" fill="none" xmlns="http://www.w3.org/2000/svg">
<path fill-rule="evenodd" clip-rule="evenodd" d="M7.22854 0.315353H7.23694C8.37293 0.315353 9.46471 0.759581 10.2714 1.55389C11.0785 2.3486 11.5341 3.42892 11.5341 4.55784V6.65881C11.5341 7.75565 11.1039 8.80802 10.3367 9.59687C9.56984 10.3854 8.52574 10.8499 7.42294 10.8971L7.41553 10.8974L7.24533 10.9013H7.23694C6.10094 10.9013 5.00917 10.457 4.20244 9.66272C3.39534 8.86801 2.93974 7.78772 2.93974 6.65881V4.55784C2.93981 3.46096 3.37002 2.4086 4.13721 1.61974C4.90403 0.831245 5.94813 0.366702 7.05094 0.319532L7.05835 0.319216L7.22854 0.315353ZM7.24487 1.79705L7.10724 1.80018C6.38151 1.83298 5.69861 2.13946 5.19942 2.65278C4.69897 3.16735 4.4215 3.85002 4.42143 4.55784C4.42143 4.5578 4.42143 4.55784 4.42143 4.55784V6.65881C4.42143 7.38727 4.71523 8.08824 5.24202 8.6069C5.7673 9.12414 6.48151 9.41752 7.22904 9.41956L7.36664 9.41643C8.09237 9.38364 8.77526 9.07716 9.27446 8.56387C9.77491 8.04926 10.0524 7.36663 10.0524 6.65881C10.0524 6.65878 10.0524 6.65881 10.0524 6.65881V4.55784C10.0524 3.82937 9.75864 3.12837 9.23185 2.60971C8.70658 2.09247 7.99237 1.79913 7.24487 1.79705ZM3.17424 14.3446C2.14852 14.9215 1.71863 15.6027 1.71863 16.1884H0.236938C0.236938 14.8296 1.20824 13.7504 2.44785 13.0532C3.71068 12.3428 5.40537 11.9268 7.23694 11.9268C9.0685 11.9268 10.7632 12.3428 12.026 13.0532C13.2656 13.7504 14.2369 14.8296 14.2369 16.1884H12.7552C12.7552 15.6027 12.3254 14.9215 11.2996 14.3446C10.2971 13.7806 8.86222 13.4085 7.23694 13.4085C5.61165 13.4085 4.17679 13.7806 3.17424 14.3446Z" fill="#007BFB"/>
</svg>
