<svg width="47" height="48" viewBox="0 0 47 48" fill="none" xmlns="http://www.w3.org/2000/svg">
<path fill-rule="evenodd" clip-rule="evenodd" d="M0 10.4261C0 4.70188 4.62581 0 10.3794 0H37.8249C38.581 0 39.2741 0.421387 39.6222 1.09268C39.9702 1.76397 39.9151 2.57326 39.4793 3.19121L7.87972 48L4.57083 45.6666L33.92 4.04892H10.3794C6.89133 4.04892 4.04897 6.90855 4.04897 10.4261C4.04897 13.929 6.92327 16.8033 10.4261 16.8033C13.9289 16.8033 16.8033 13.929 16.8033 10.4261V7.62557H20.8523V10.4261C20.8523 16.1651 16.1651 20.8522 10.4261 20.8522C4.68717 20.8522 0 16.1651 0 10.4261ZM35.6311 29.2539C32.109 29.2539 29.2539 32.1091 29.2539 35.6311C29.2539 39.1531 32.109 42.0083 35.6311 42.0083C39.1531 42.0083 42.0082 39.1531 42.0082 35.6311C42.0082 32.1091 39.1531 29.2539 35.6311 29.2539ZM25.205 35.6311C25.205 29.8729 29.8729 25.205 35.6311 25.205C41.3893 25.205 46.0572 29.8729 46.0572 35.6311C46.0572 41.3893 41.3893 46.0572 35.6311 46.0572C29.8729 46.0572 25.205 41.3893 25.205 35.6311Z" fill="#007BFB"/>
</svg>
