<svg width="14" height="14" viewBox="0 0 14 14" fill="none" xmlns="http://www.w3.org/2000/svg">
<path fill-rule="evenodd" clip-rule="evenodd" d="M6.99992 0.333252C3.31992 0.333252 0.333252 3.31992 0.333252 6.99992C0.333252 10.6799 3.31992 13.6666 6.99992 13.6666C10.6799 13.6666 13.6666 10.6799 13.6666 6.99992C13.6666 3.31992 10.6799 0.333252 6.99992 0.333252ZM6.99992 7.66659C6.63325 7.66659 6.33325 7.36659 6.33325 6.99992V4.33325C6.33325 3.96658 6.63325 3.66658 6.99992 3.66658C7.36659 3.66658 7.66659 3.96658 7.66659 4.33325V6.99992C7.66659 7.36659 7.36659 7.66659 6.99992 7.66659ZM7.66659 10.3333H6.33325V8.99992H7.66659V10.3333Z" fill="#E92C2C"/>
</svg>
