<svg width="59" height="71" viewBox="0 0 59 71" fill="none" xmlns="http://www.w3.org/2000/svg">
<path d="M34.5662 43.1087H16.2733V52.2391H46.0628V58.3261H16.2733V70.5H10.2385V58.3261H1V52.2391H10.2385V43.1087H1V37.0443H10.2385V0.5H35.4899C42.6754 0.5 48.2869 2.28439 52.3242 5.85287C56.4303 9.35287 58.4833 14.5 58.4833 21.2943C58.4833 28.0882 56.4645 33.3382 52.4272 37.0443C48.3895 40.6812 42.436 43.1087 34.5662 43.1087ZM16.2733 6.58696V37.0351L35.4899 37.0443C40.4855 37.0443 44.3564 36.3117 46.82 33.9783C49.2836 31.6448 52.9293 27.8913 52.9293 21.2943C52.9293 15.7174 50.8794 13.4168 48.3473 11.1522C45.8838 8.88752 40.4171 6.59578 35.4899 6.59578L16.2733 6.58696Z" fill="#007BFB" stroke="#007BFB"/>
</svg>
