<svg width="61" height="48" viewBox="0 0 61 48" fill="none" xmlns="http://www.w3.org/2000/svg">
<path fill-rule="evenodd" clip-rule="evenodd" d="M30.0211 0L58.5235 12.9517C58.757 13.0403 59.0022 13.176 59.2364 13.3809C59.8392 13.9083 60.0421 14.6069 60.0421 15.1581C60.0421 16.0824 59.5267 16.6673 59.3264 16.8676L59.0268 17.1672L57.573 17.8278V32.8251H52.9011V19.9508L47.4866 22.4112V40.0435L30.0211 48L12.5555 40.0435V26.5211H17.2275V37.038L30.0211 42.8662L42.8147 37.038V24.5342L30.0211 30.3477L1.51003 17.3921C1.01833 17.1997 0.639683 16.8576 0.400261 16.4986C0.0822055 16.0216 0 15.5309 0 15.1739C0 14.8168 0.0822055 14.3262 0.400261 13.8491C0.639673 13.49 1.01832 13.1479 1.51003 12.9556L30.0211 0ZM7.92156 15.1739L30.0211 25.2161L52.1206 15.1739L30.0211 5.13168L7.92156 15.1739Z" fill="#007BFB"/>
</svg>
